<?xml version="1.0" encoding="UTF-8"?>
<svg id="Ebene_1" xmlns="http://www.w3.org/2000/svg" version="1.1" viewBox="0 0 100 51.91" fill="#1155cc">
  <!-- Baudienstleistungen. Farbe #1155cc, entspricht dem Wert color-blue-medium in tailwind/input.css.
       Generator: Adobe Illustrator 30.3.0, SVG Export Plug-In . SVG Version: 2.1.3 Build 182)  -->
  <path d="M18.36,23.39"/>
  <path d="M99.94,14.82c-.26-1.01-1.29-1.61-2.29-1.35l-30.19,7.83,3.74-8.14,3.12.44c.09.01.18.02.26.02.92,0,1.73-.68,1.86-1.62.14-1.03-.58-1.98-1.6-2.12L4.22.02c-1.03-.14-1.98.57-2.12,1.6-.14,1.03.58,1.98,1.6,2.12l4.53.63,22.39,26.48-1.79.46c-2.31-2.7-5.74-4.42-9.57-4.42-6.1,0-11.19,4.34-12.34,10.1l-5.5,1.43c-1,.26-1.61,1.29-1.35,2.29.22.85.98,1.41,1.82,1.41.16,0,.31-.02.47-.06l4.4-1.14c.72,6.27,6.04,11.13,12.5,11.13,6.95,0,12.58-5.63,12.58-12.58,0-1.7-.34-3.32-.95-4.81l2.43-.63,13,15.38c.38.54,1.9,2.49,4.1,2.49,2.39,0,3.75-1.64,4.19-2.63l10.83-23.57,33.15-8.6c1.01-.26,1.61-1.28,1.35-2.29ZM19.25,32.42c1.03,0,2.01.23,2.9.63l-8.55,2.22c1.29-1.73,3.34-2.85,5.65-2.85ZM19.25,46.53c-3.88,0-7.03-3.14-7.06-7.02l4.79-1.24c-.19.36-.3.77-.3,1.2,0,1.41,1.15,2.57,2.57,2.57s2.57-1.15,2.57-2.57c0-.9-.47-1.69-1.17-2.15l4.79-1.24c.55,1.01.87,2.16.87,3.39,0,3.9-3.16,7.06-7.06,7.06ZM51.18,47.72h0v-.04s-.01.06-.01.06c-.1.16-.31.41-.75.41-.2-.01-.73-.44-1.03-.9l-.06-.1-11.96-14.17,23.42-6.07-9.6,20.8Z"/>
</svg>