<?xml version="1.0" encoding="UTF-8"?>
<svg id="Ebene_1" xmlns="http://www.w3.org/2000/svg" version="1.1" viewBox="0 0 91.32 97.79" fill="#1155cc">
  <!-- Installationsarbeiten. Farbe #1155cc, entspricht dem Wert color-blue-medium in tailwind/input.css.
       Generator: Adobe Illustrator 30.3.0, SVG Export Plug-In . SVG Version: 2.1.3 Build 182)  -->
  <path d="M84.34,39.95C83.17,17.72,64.72,0,42.2,0S0,18.93,0,42.2v54.96h24.39v-54.96c0-9.82,7.99-17.82,17.81-17.82,9.06,0,16.54,6.8,17.66,15.56h-6.76v5.54h38.22v-5.54h-6.98Z"/>
  <path d="M80.09,53.06c-.62,0-1.23-.25-1.66-.7-.11-.1-.21-.22-.3-.35-.08-.12-.15-.26-.21-.41-.07-.13-.11-.29-.13-.43-.03-.15-.06-.31-.06-.47,0-.14.02-.3.06-.46.02-.15.07-.3.13-.44.06-.15.13-.28.21-.4.09-.13.19-.26.3-.37.88-.88,2.44-.88,3.33,0,.11.11.21.23.29.37.09.12.17.25.22.4.06.14.1.29.13.44.03.15.04.31.04.46,0,.15-.01.31-.04.47-.03.14-.08.3-.13.43-.06.15-.13.29-.22.41-.08.13-.18.26-.29.35-.44.44-1.04.7-1.66.7Z"/>
  <path d="M77.74,67.44c0-1.3,1.05-2.35,2.35-2.35h0c1.3,0,2.35,1.05,2.35,2.35h0c0,1.3-1.05,2.35-2.35,2.35h0c-1.3,0-2.35-1.05-2.35-2.35ZM77.74,59.07c0-1.3,1.05-2.35,2.35-2.35h0c1.3,0,2.35,1.05,2.35,2.35h0c0,1.3-1.05,2.35-2.35,2.35h0c-1.3,0-2.35-1.05-2.35-2.35Z"/>
  <path d="M80.09,78.16c-.62,0-1.23-.24-1.66-.69-.11-.11-.21-.23-.3-.36-.08-.13-.15-.27-.21-.41-.07-.14-.11-.29-.13-.44-.03-.14-.04-.3-.04-.45s.01-.31.04-.46c.02-.16.07-.3.13-.44.06-.14.13-.28.21-.41.09-.12.19-.24.3-.35.54-.54,1.35-.8,2.12-.64.15.03.3.08.44.13.14.06.28.13.41.22.12.08.25.18.36.29.11.11.21.23.29.35.09.13.16.27.22.41.06.14.1.29.13.44.03.14.04.3.04.46s-.01.31-.04.45c-.03.16-.08.3-.13.44-.07.14-.13.28-.22.41-.08.12-.18.24-.29.36-.11.11-.23.21-.36.3-.13.08-.26.15-.41.21-.14.06-.29.1-.44.13-.14.03-.3.04-.46.04Z"/>
  <path d="M69.86,87.99c0-1.31,1.05-2.36,2.35-2.36h0c1.31,0,2.36,1.05,2.36,2.36h0c0,1.3-1.05,2.35-2.36,2.35h0c-1.3,0-2.35-1.05-2.35-2.35ZM69.86,80.54c0-1.3,1.05-2.36,2.35-2.36h0c1.31,0,2.36,1.06,2.36,2.36h0c0,1.3-1.05,2.35-2.36,2.35h0c-1.3,0-2.35-1.05-2.35-2.35ZM69.86,73.09c0-1.3,1.05-2.35,2.35-2.35h0c1.31,0,2.36,1.05,2.36,2.35h0c0,1.3-1.05,2.35-2.36,2.35h0c-1.3,0-2.35-1.05-2.35-2.35ZM69.86,65.64c0-1.3,1.05-2.35,2.35-2.35h0c1.31,0,2.36,1.05,2.36,2.35h0c0,1.31-1.05,2.36-2.36,2.36h0c-1.3,0-2.35-1.05-2.35-2.36ZM69.86,58.2c0-1.3,1.05-2.35,2.35-2.35h0c1.31,0,2.36,1.05,2.36,2.35h0c0,1.3-1.05,2.35-2.36,2.35h0c-1.3,0-2.35-1.05-2.35-2.35ZM69.86,50.75c0-1.3,1.05-2.35,2.35-2.35h0c1.31,0,2.36,1.05,2.36,2.35h0c0,1.3-1.05,2.35-2.36,2.35h0c-1.3,0-2.35-1.05-2.35-2.35Z"/>
  <path d="M72.21,97.79c-.15,0-.31-.02-.46-.06-.15-.02-.3-.07-.44-.13-.14-.06-.28-.13-.4-.21-.13-.09-.25-.19-.37-.3-.43-.43-.69-1.04-.69-1.66,0-.14.01-.31.04-.45.03-.16.08-.3.13-.44.07-.14.13-.28.22-.41.09-.12.18-.24.29-.36.88-.88,2.46-.88,3.33,0,.11.11.21.23.3.36.08.13.15.27.21.41.07.14.11.29.13.44.03.14.06.31.06.45,0,.62-.25,1.23-.7,1.66-.1.11-.22.21-.35.3-.12.08-.27.15-.41.21-.13.07-.29.11-.43.13-.16.03-.31.06-.47.06Z"/>
  <path d="M61.98,75.55c0-1.31,1.05-2.36,2.36-2.36h0c1.3,0,2.35,1.05,2.35,2.36h0c0,1.3-1.05,2.35-2.35,2.35h0c-1.31,0-2.36-1.05-2.36-2.35ZM61.98,67.35c0-1.3,1.05-2.35,2.36-2.35h0c1.3,0,2.35,1.05,2.35,2.35h0c0,1.3-1.05,2.36-2.35,2.36h0c-1.31,0-2.36-1.06-2.36-2.36ZM61.98,59.16c0-1.3,1.05-2.35,2.36-2.35h0c1.3,0,2.35,1.05,2.35,2.35h0c0,1.3-1.05,2.35-2.35,2.35h0c-1.31,0-2.36-1.05-2.36-2.35ZM61.98,50.96c0-1.31,1.05-2.36,2.36-2.36h0c1.3,0,2.35,1.05,2.35,2.36h0c0,1.3-1.05,2.35-2.35,2.35h0c-1.31,0-2.36-1.05-2.36-2.35Z"/>
  <path d="M64.34,86.09c-.15,0-.31-.01-.47-.04-.14-.02-.3-.08-.44-.13-.13-.06-.28-.13-.4-.21-.13-.09-.25-.19-.36-.3-.11-.11-.21-.23-.3-.35-.08-.13-.15-.27-.21-.41-.07-.14-.11-.29-.13-.44-.03-.14-.06-.3-.06-.46s.02-.31.06-.45c.02-.16.07-.3.13-.44.06-.14.13-.28.21-.41.09-.12.19-.24.3-.36.88-.88,2.45-.88,3.33,0,.11.11.2.23.29.36.09.13.16.27.22.41.06.14.1.29.13.44.03.14.04.3.04.45s-.01.31-.04.46c-.03.16-.08.3-.13.44-.07.14-.13.28-.22.41-.09.12-.18.24-.29.35-.44.44-1.04.69-1.66.69Z"/>
</svg>