<?xml version="1.0" encoding="UTF-8"?>
<svg fill="#ffffff" id="Ebene_1" xmlns="http://www.w3.org/2000/svg" version="1.1" viewBox="0 0 1200 1011.26">
  <!-- Generator: Adobe Illustrator 30.3.0, SVG Export Plug-In . SVG Version: 2.1.3 Build 182)  -->
  <path d="M616.36,86.83c0,47.96-38.88,86.84-86.83,86.84s-86.83-38.88-86.83-86.84S481.57,0,529.53,0s86.83,38.88,86.83,86.83Z"/>
  <path d="M1086.7,883.26c-5.95-10.43-19.12-14.09-29.48-8.19l-91.81,51.88-234.43-409.09c-1.52-2.69-15.95-27.15-37.38-41.43-28.57-19.05-61.88-12.07-67.83-10.52l-46.65,16.38-126-78.17,48.26-89.93s35.14-64.88,0-109.02c-11.71-18.91-37.12-36.67-59.02-39.36-37.41-4.74-72.45,12.95-91.83,42.29l-101.17,188.88c-4.79,8.17-12.79,23.59-17.12,36.26-2.17,3.88-8.41,21.5-12,40.43l-36.88,212.48-154.33,64.79c-52.19,22.74-32.85,116.52,48.85,92.48l169.41-72.07c5.95-2.52,11.05-6.26,15.52-10.72.71-.59,1.36-1.17,2-1.79,4.12-4.41,7.26-9.5,9.62-15.09.19-.55.71-.95.93-1.52l35.59-112.62,97.76,104.81-33.17,222.31c-1.95,74.5,92.67,70.91,101.69.62l32.26-216.91c1.81-24.31-6.86-45.38-14.41-58.57l-10.67-18.65-97.98-134.69,29.38-54.76c50.62,31.31,114.36,70.76,122.52,75.88,29.69,18.65,57.24-3.29,60.76-28.55l38.74-13.69c.17-.05,18.5-3.76,31.74,5.02,11,7.33,21,22.07,23.88,27.05l151.17,263.76c-21.52-20.17-50.22-32.72-81.93-32.72-66.35,0-120.38,54.02-120.38,120.43s54.02,120.41,120.38,120.41,120.38-54.02,120.38-120.41c0-8.86-1.07-17.35-2.91-25.62l58.41,101.86c3.98,6.98,11.26,10.88,18.78,10.88,3.59,0,7.24-.91,10.59-2.83l110.57-62.45c10.36-5.96,14-19.1,8.15-29.53h0ZM762.7,933.88c-23.72,0-43-19.33-43-43.02s19.28-43.05,43-43.05,43,19.33,43,43.05-19.28,43.02-43,43.02Z"/>
  <path d="M809.11,609.81l225.16-129.06,164.91,287.71-225.16,129.06-164.91-287.71Z"/>
</svg>